<svg xmlns="http://www.w3.org/2000/svg" width="25" height="18" viewBox="0 0 25 18" fill="none">
  <path d="M23.5001 3.50701C23.3642 3.02225 23.0995 2.58336 22.7341 2.23702C22.3584 1.88002 21.8979 1.62465 21.3961 1.49501C19.5181 1.00001 11.9941 1.00002 11.9941 1.00002C8.85746 0.964328 5.72156 1.12129 2.60413 1.47001C2.10232 1.60923 1.64269 1.8703 1.26613 2.23002C0.896129 2.58601 0.628129 3.02502 0.488129 3.50602C0.151822 5.31776 -0.0115791 7.15736 0.000128902 9.00002C-0.0118711 10.841 0.151129 12.68 0.488129 14.494C0.625129 14.973 0.892129 15.41 1.26313 15.763C1.63413 16.116 2.09613 16.371 2.60413 16.506C4.50713 17 11.9941 17 11.9941 17C15.1348 17.0358 18.2747 16.8788 21.3961 16.53C21.8979 16.4004 22.3584 16.145 22.7341 15.788C23.0994 15.4417 23.3638 15.0028 23.4991 14.518C23.8442 12.707 24.012 10.8666 24.0001 9.02302C24.0261 7.17162 23.8585 5.32258 23.5001 3.50602V3.50701ZM9.60213 12.424V5.57701L15.8621 9.00102L9.60213 12.424Z" fill="#F8F9FA"/>
</svg>